<?xml version="1.0" encoding="utf-8"?>
<!-- Generator: Adobe Illustrator 21.0.0, SVG Export Plug-In . SVG Version: 6.00 Build 0)  -->
<svg version="1.1" id="Layer_1" xmlns="http://www.w3.org/2000/svg" xmlns:xlink="http://www.w3.org/1999/xlink" x="0px" y="0px"
	 viewBox="0 0 38 38" style="enable-background:new 0 0 38 38;" xml:space="preserve">
<style type="text/css">
	.st0{fill:#E8E8E9;}
	.st1{fill:#BBBEC1;}
	.st2{fill:#EF3829;}
	.st3{fill:#FFFFFF;}
</style>
<g>
	<g>
		<ellipse class="st0" cx="26.3" cy="13.4" rx="10.1" ry="9.9"/>
	</g>
	<g>
		<g>
			<rect x="10.6" y="7.9" class="st1" width="3.9" height="1.1"/>
		</g>
		<g>
			<rect x="8.3" y="7.9" class="st1" width="1.1" height="1.1"/>
		</g>
		<g>
			<rect x="6.1" y="7.9" class="st1" width="1.1" height="1.1"/>
		</g>
		<g>
			<rect x="4.9" y="5.2" class="st1" width="1.1" height="1.1"/>
		</g>
		<g>
			<rect x="2.7" y="5.2" class="st1" width="1.1" height="1.1"/>
		</g>
		<g>
			<path class="st1" d="M22.9,6.3H17L16.9,6c-0.1-0.3-0.5-0.7-1-0.7c-0.2,0-0.3,0-0.4,0.1L15,5.6L14.8,5c-0.3-0.8-1.1-1.3-2-1.3
				c-1.2,0-2.1,1.2-2.1,2v0.6H7.2V5.2h2.5c0.3-1.3,1.6-2.6,3.2-2.6c1.2,0,2.2,0.6,2.8,1.6c0.1,0,0.2,0,0.3,0c0.7,0,1.4,0.4,1.8,1H23
				v1.1C23,6.3,22.9,6.3,22.9,6.3z"/>
		</g>
		<g>
			<path class="st1" d="M36.4,9.1h-2.5l-0.2-0.3C33.5,8.5,33,8,32.2,8h-0.4l-0.2-0.3c-0.3-0.6-0.9-0.9-1.5-0.9c-1,0-1.7,0.9-1.8,1.6
				V9h-6V7.9h5c0.3-1.2,1.5-2.2,2.8-2.2c0.9,0,1.7,0.4,2.3,1.2c0.9,0,1.6,0.5,2.1,1h1.9V9.1z"/>
		</g>
		<g>
			<rect x="20.1" y="7.9" class="st1" width="1.1" height="1.1"/>
		</g>
		<g>
			<rect x="17.9" y="7.9" class="st1" width="1.1" height="1.1"/>
		</g>
	</g>
	<g>
		<g>
			<rect x="5.5" y="34.3" class="st1" width="6.2" height="1.1"/>
		</g>
		<g>
			<rect x="13.9" y="34.3" class="st1" width="6.2" height="1.1"/>
		</g>
		<g>
			<rect x="22.4" y="34.3" class="st1" width="6.2" height="1.1"/>
		</g>
		<g>
			<rect x="30.8" y="34.3" class="st1" width="6.2" height="1.1"/>
		</g>
		<g>
			<rect x="3.2" y="34.3" class="st1" width="1.1" height="1.1"/>
		</g>
		<g>
			<rect x="1" y="34.3" class="st1" width="1.1" height="1.1"/>
		</g>
	</g>
	<g>
		<path class="st2" d="M34.2,22.8l-2.7-3.4c-0.3-0.3-0.7-0.5-1.2-0.5h-3.9v9.9h8c0.9,0,1.6-0.7,1.6-1.5c0-1,0-1.8,0-2.9
			C35.9,23.5,35.1,22.8,34.2,22.8z"/>
		<path d="M34.3,29.4h-8.6v-11h4.5c0.6,0,1.2,0.2,1.6,0.6l2.6,3.2c0.5,0.1,0.9,0.3,1.3,0.6c0.4,0.4,0.7,1,0.7,1.6v2.9
			C36.4,28.4,35.5,29.4,34.3,29.4z M26.9,28.2h7.4c0.6,0,1-0.4,1-1v-2.9c0-0.3-0.1-0.6-0.3-0.8c-0.2-0.2-0.5-0.3-0.8-0.3l0,0h-0.3
			L31,19.8c-0.2-0.2-0.5-0.3-0.8-0.3h-3.4L26.9,28.2L26.9,28.2z"/>
	</g>
	<g>
		<polygon class="st3" points="28.6,23.9 31.4,23.9 31.9,23.3 30.3,21.1 28.6,21.1 		"/>
		<path d="M31.6,24.4H28v-3.9h2.5l2.2,2.8L31.6,24.4z M29.1,23.3h2L30,21.7h-0.8v1.6C29.2,23.3,29.1,23.3,29.1,23.3z"/>
	</g>
	<g>
		<ellipse class="st0" cx="30.3" cy="28.8" rx="2.3" ry="2.2"/>
		<path d="M30.3,31.6c-1.6,0-2.8-1.2-2.8-2.8c0-1.5,1.3-2.8,2.8-2.8s2.8,1.2,2.8,2.8C33.1,30.3,31.8,31.6,30.3,31.6z M30.3,27.2
			c-0.9,0-1.7,0.7-1.7,1.6s0.8,1.6,1.7,1.6s1.7-0.7,1.7-1.6C31.9,27.9,31.2,27.2,30.3,27.2z"/>
	</g>
	<g>
		<polyline class="st3" points="8.3,23.3 8.3,13.4 26.3,13.4 26.3,28.8 8.3,28.8 8.3,25 		"/>
		<polygon points="26.9,29.4 7.7,29.4 7.7,25 8.9,25 8.9,28.2 25.7,28.2 25.7,14 8.9,14 8.9,23.3 7.7,23.3 7.7,12.9 26.9,12.9 		"/>
	</g>
	<g>
		<ellipse class="st0" cx="13.4" cy="28.8" rx="2.3" ry="2.2"/>
		<path d="M13.4,31.6c-1.6,0-2.8-1.2-2.8-2.8c0-1.5,1.3-2.8,2.8-2.8s2.8,1.2,2.8,2.8C16.2,30.3,14.9,31.6,13.4,31.6z M13.4,27.2
			c-0.9,0-1.7,0.7-1.7,1.6s0.8,1.6,1.7,1.6s1.7-0.7,1.7-1.6C15.1,27.9,14.3,27.2,13.4,27.2z"/>
	</g>
	<g>
		<g>
			<rect x="5.5" y="15.1" width="2.8" height="1.1"/>
		</g>
		<g>
			<rect x="1" y="18.9" width="5.1" height="1.1"/>
		</g>
		<g>
			<rect x="3.2" y="15.1" width="1.1" height="1.1"/>
		</g>
		<g>
			<rect x="1" y="22.7" width="7.9" height="1.1"/>
		</g>
	</g>
</g>
</svg>
