<?xml version="1.0" encoding="utf-8"?>
<!-- Generator: Adobe Illustrator 21.0.0, SVG Export Plug-In . SVG Version: 6.00 Build 0)  -->
<svg version="1.1" id="Layer_1" xmlns="http://www.w3.org/2000/svg" xmlns:xlink="http://www.w3.org/1999/xlink" x="0px" y="0px"
	 viewBox="0 0 38 38" style="enable-background:new 0 0 38 38;" xml:space="preserve">
<style type="text/css">
	.st0{fill:#E8E8E9;}
	.st1{fill:#FFFFFF;}
	.st2{fill:#EF3829;}
</style>
<g>
	<g>
		<path class="st0" d="M37,19c0,9.9-8.1,18-18,18S1,26,1,19C1,9.1,9.1,1,19,1S37,9.1,37,19z"/>
	</g>
	<g>
		<g>
			<path class="st0" d="M16.6,10.1v-1c0-1.1-0.9-1.9-1.9-1.9H5.1C4,7.2,3.2,8.1,3.2,9.1v1H16.6z"/>
			<path d="M17.1,10.7H2.6V9.2c0-1.4,1.1-2.5,2.5-2.5h9.5c1.4,0,2.5,1.1,2.5,2.5V10.7z M3.8,9.5H16V9.2c0-0.7-0.6-1.4-1.3-1.4H5.1
				c-0.7,0-1.3,0.6-1.3,1.4V9.5z"/>
		</g>
		<g>
			<path class="st0" d="M3.2,26.9v1.9c0,0.9,1,1.9,1.9,1.9h9.5c0.9,0,1.9-1,1.9-1.9v-1.9H3.2z"/>
			<path d="M14.6,31.3H5.1c-1.2,0-2.5-1.3-2.5-2.5v-2.5h14.5v2.5c0,0.6-0.3,1.2-0.8,1.7C15.8,31.1,15.2,31.3,14.6,31.3z M3.8,27.5
				v1.4c0,0.6,0.7,1.4,1.3,1.4h9.5c0.3,0,0.6-0.2,0.9-0.4c0.3-0.3,0.4-0.6,0.4-0.9v-1.4H3.8V27.5z"/>
		</g>
		<g>
			<rect x="3.2" y="10.1" class="st1" width="13.3" height="16.8"/>
		</g>
		<g>
			<path d="M17.1,27.5H2.6v-18h14.5V27.5z M3.8,26.4H16V10.7H3.8V26.4z"/>
		</g>
		<g>
			<rect x="8.9" y="28.3" width="2.4" height="1.1"/>
		</g>
		<g>
			<polygon points="15.6,26 12.9,26 12.9,24.8 14.5,24.8 14.5,21.8 15.6,21.8 			"/>
		</g>
		<g>
			<rect x="14.5" y="19.6" width="1.1" height="1"/>
		</g>
	</g>
	<g>
		<g>
			<path class="st0" d="M34.8,10.1v-1c0-1.1-0.9-1.9-1.9-1.9h-9.5c-1.1,0-1.9,0.9-1.9,1.9v1H34.8z"/>
			<path d="M35.4,10.7H20.9V9.2c0-1.4,1.1-2.5,2.5-2.5h9.5c1.4,0,2.5,1.1,2.5,2.5V10.7z M22,9.5h12.2V9.2c0-0.7-0.6-1.4-1.3-1.4
				h-9.5c-0.7,0-1.3,0.6-1.3,1.4v0.3H22z"/>
		</g>
		<g>
			<path class="st0" d="M21.4,26.9v1.9c0,0.9,1,1.9,1.9,1.9h9.5c0.9,0,1.9-1,1.9-1.9v-1.9H21.4z"/>
			<path d="M32.9,31.3h-9.5c-1.2,0-2.5-1.3-2.5-2.5v-2.5h14.5v2.5c0,0.6-0.3,1.2-0.8,1.7C34.1,31.1,33.5,31.3,32.9,31.3z M22,27.5
				v1.4c0,0.6,0.7,1.4,1.3,1.4h9.5c0.3,0,0.6-0.2,0.9-0.4c0.3-0.3,0.4-0.6,0.4-0.9v-1.4H22V27.5z"/>
		</g>
		<g>
			<rect x="21.4" y="10.1" class="st1" width="13.3" height="16.8"/>
		</g>
		<g>
			<path d="M35.4,27.5H20.9v-18h14.5V27.5z M22,26.4h12.2V10.7H22V26.4z"/>
		</g>
		<g>
			<rect x="27.2" y="28.3" width="2.4" height="1.1"/>
		</g>
		<g>
			<polygon points="33.8,26 31.2,26 31.2,24.8 32.7,24.8 32.7,21.8 33.8,21.8 			"/>
		</g>
		<g>
			<rect x="32.7" y="19.6" width="1.1" height="1"/>
		</g>
	</g>
	<g>
		<g>
			<path class="st2" d="M26,9V8c0-1.2-1-2.2-2.1-2.2H13.2c-1.2,0-2.1,1-2.1,2.2v1H26z"/>
			<path d="M26.6,9.6H10.5V8c0-1.5,1.2-2.7,2.7-2.7h10.7c1.5,0,2.7,1.2,2.7,2.7V9.6z M11.7,8.5h13.8V8c0-0.9-0.7-1.6-1.6-1.6H13.2
				c-0.9,0-1.6,0.7-1.6,1.6v0.5H11.7z"/>
		</g>
		<g>
			<path class="st2" d="M11.1,27.9V30c0,1,1.1,2.2,2.1,2.2h10.7c1,0,2.1-1.1,2.1-2.2v-2.2H11.1V27.9z"/>
			<path d="M13.2,32.7c-0.6,0-1.3-0.3-1.9-0.9c-0.5-0.5-0.8-1.2-0.9-1.9v-2.7h16.1V30c0,0.6-0.3,1.3-0.8,1.9
				c-0.5,0.5-1.2,0.9-1.9,0.9L13.2,32.7C13.2,32.7,13.2,32.7,13.2,32.7z M11.7,28.4V30c0,0.3,0.2,0.7,0.5,1.1c0.3,0.3,0.7,0.5,1,0.5
				l0,0h10.7c0.3,0,0.7-0.2,1-0.5s0.5-0.7,0.5-1.1v-1.6H11.7z"/>
		</g>
		<g>
			<rect x="11.1" y="9" class="st1" width="14.9" height="18.8"/>
		</g>
		<g>
			<path d="M26.6,28.4H10.5v-20h16.1V28.4z M11.7,27.3h13.8V9.6H11.7V27.3z"/>
		</g>
		<g>
			<rect x="17.5" y="29.5" width="2.7" height="1.1"/>
		</g>
		<g>
			<polygon points="24.9,26.7 22,26.7 22,25.6 23.8,25.6 23.8,22.1 24.9,22.1 			"/>
		</g>
		<g>
			<rect x="23.8" y="19.7" width="1.1" height="1.2"/>
		</g>
	</g>
</g>
</svg>
