<?xml version="1.0" encoding="utf-8"?>
<!-- Generator: Adobe Illustrator 21.0.0, SVG Export Plug-In . SVG Version: 6.00 Build 0)  -->
<svg version="1.1" id="Layer_1" xmlns="http://www.w3.org/2000/svg" xmlns:xlink="http://www.w3.org/1999/xlink" x="0px" y="0px"
	 viewBox="0 0 38 38" style="enable-background:new 0 0 38 38;" xml:space="preserve">
<style type="text/css">
	.st0{fill:#BBBEC1;}
	.st1{fill:#E8E8E9;}
	.st2{fill:#FFFFFF;}
	.st3{fill:#CD3B2E;stroke:#000000;stroke-width:1.2;stroke-miterlimit:10;}
	.st4{fill:#EF3829;}
</style>
<g>
	<g>
		<g>
			<path class="st0" d="M34.9,27l-1-0.5c2.1-4.1,2.5-8.7,1.1-13c-1.4-4.2-4.3-7.6-8.2-9.6c-0.4-0.2-0.7-0.3-1.1-0.5l0.4-1
				c0.4,0.2,0.8,0.3,1.1,0.5C31.4,5,34.5,8.7,36,13.1C37.6,17.7,37.2,22.6,34.9,27z"/>
		</g>
		<g>
			<path class="st0" d="M18.7,37c-2.7,0-5.5-0.6-8-1.9c-2.8-1.4-5.2-3.5-6.9-6.2l0.9-0.6c1.6,2.5,3.8,4.5,6.4,5.8
				c5.8,2.9,12.6,2.2,17.9-1.7l0.7,0.9C26.4,35.7,22.5,37,18.7,37z"/>
		</g>
		<g>
			<path class="st0" d="M1.1,21.3c-0.4-3.5,0.3-7.1,2-10.3C6,5.2,11.8,1.4,18.2,1l0.1,1.1c-6,0.4-11.5,4-14.3,9.3
				c-1.6,3-2.2,6.4-1.8,9.7L1.1,21.3z"/>
		</g>
		<g>
			<ellipse class="st1" cx="18.9" cy="18.6" rx="14.5" ry="14.3"/>
		</g>
	</g>
	<g>
		<polygon class="st2" points="18.8,5 31.2,12.1 31.2,26.5 18.8,33.6 6.5,26.5 6.5,12.1 		"/>
		<path d="M18.8,34.2L5.9,26.8v-15l12.9-7.5l12.9,7.5v14.9L18.8,34.2z M7,26.1L18.8,33l11.8-6.8V12.5L18.8,5.6L7,12.5V26.1z"/>
	</g>
	<g>
		<path class="st3" d="M18.8,19.3"/>
	</g>
	<g>
		<polygon class="st4" points="26.3,21.7 23.7,23.3 23.7,16.3 11.4,9.1 13.8,7.7 26.3,14.7 		"/>
		<path d="M23.1,24.3l0.1-7.7L10.3,9.2L13.8,7l13,7.4V22L23.1,24.3z M12.5,9.1L24.3,16l-0.1,6.3l1.5-0.9v-6.3L13.8,8.3L12.5,9.1z"/>
	</g>
	<g>
		<polygon points="19.4,33.6 18.3,33.6 18.4,19.7 6.4,12.7 7,11.7 18.9,18.8 31.1,11.9 31.7,12.8 19.5,19.7 		"/>
	</g>
</g>
</svg>
