<?xml version="1.0" encoding="utf-8"?>
<!-- Generator: Adobe Illustrator 21.0.0, SVG Export Plug-In . SVG Version: 6.00 Build 0)  -->
<svg version="1.1" id="Layer_1" xmlns="http://www.w3.org/2000/svg" xmlns:xlink="http://www.w3.org/1999/xlink" x="0px" y="0px"
	 viewBox="0 0 38 38" style="enable-background:new 0 0 38 38;" xml:space="preserve">
<style type="text/css">
	.st0{fill:#BBBEC1;}
	.st1{fill:#FFFFFF;}
	.st2{fill:#EF3829;}
</style>
<g>
	<g>
		<g>
			<rect x="34.6" y="4.8" class="st0" width="1" height="3.7"/>
		</g>
		<g>
			<rect x="33.3" y="6.1" class="st0" width="3.7" height="1"/>
		</g>
	</g>
	<g>
		<g>
			<rect x="2.4" y="30.6" class="st0" width="1" height="3.7"/>
		</g>
		<g>
			<rect x="1" y="31.9" class="st0" width="3.7" height="1"/>
		</g>
	</g>
	<g>
		<g>
			<path class="st1" d="M18.8,3.6c8.5,0,15.4,6.9,15.4,15.4s-6.9,15.4-15.4,15.4S3.4,27.5,3.4,19S10.3,3.6,18.8,3.6L18.8,3.6z"/>
			<path d="M18.8,34.9C10,34.9,2.9,27.8,2.9,19S10,3.1,18.8,3.1S34.7,10.2,34.7,19C34.8,27.8,27.6,34.9,18.8,34.9z M18.8,4.1
				C10.6,4.1,3.9,10.8,3.9,19s6.7,14.9,14.9,14.9S33.7,27.2,33.7,19C33.8,10.8,27.1,4.1,18.8,4.1z"/>
		</g>
		<g>
			<path class="st2" d="M26,20.2c-1.1-2.1-3.7-3.4-7.1-3.4h-0.1c-2.2,0-3.1-0.7-3.4-1.1c0-0.1-0.1-0.2,0.1-0.5
				c0.4-0.6,1.7-1.1,3.6-0.9c1.1,0.1,2.3,0.5,3.6,1l0.3,0.1l1.4-4.1l-0.3-0.1C23,11,22,10.6,21,10.4V8.3h-4.3v1.9
				c-2,0.3-3.7,1.2-4.7,2.7s-1.1,3.3-0.3,4.9c1.1,2.1,3.7,3.4,7.2,3.4H19c2.1,0,3.1,0.7,3.3,1.1c0.1,0.1,0.1,0.3,0,0.5
				c-0.4,0.6-1.6,1-3.5,0.8c-1.1-0.1-2.3-0.5-3.6-1l-0.3-0.1l-1.4,4.1l0.3,0.1c1,0.3,2,0.7,3,0.9v2.1H21v-1.8
				c2.1-0.3,3.7-1.2,4.7-2.6C26.7,23.7,26.8,21.8,26,20.2z"/>
			<path d="M21.5,30.2h-5.3V28c-0.9-0.2-1.8-0.5-2.7-0.8L12.7,27l1.7-5l0.8,0.3c1.3,0.4,2.5,0.8,3.5,0.9c1.8,0.2,2.8-0.3,3-0.6
				c-0.1-0.2-0.9-0.8-2.8-0.8c-3.7,0-6.4-1.3-7.7-3.6c-0.9-1.7-0.8-3.8,0.3-5.4c1-1.4,2.6-2.4,4.6-2.8V7.8h5.3V10
				c0.9,0.2,1.8,0.5,2.8,0.8l0.7,0.2l-1.7,5l-0.7-0.2C21.2,15.4,20,15,19,14.9c-1.8-0.2-2.9,0.3-3.1,0.7l0,0c0.2,0.3,1,0.8,2.9,0.8
				c3.6,0,6.4,1.3,7.6,3.6c0.9,1.8,0.8,3.8-0.3,5.5c-1,1.4-2.6,2.4-4.6,2.8V30.2z M17.2,29.2h3.3v-1.8l0.4-0.1
				c1.9-0.3,3.5-1.1,4.4-2.4c0.9-1.4,1-3,0.3-4.4l0,0c-1-2-3.5-3.1-6.6-3.1c-2.4,0-3.5-0.7-3.9-1.3c-0.2-0.3-0.1-0.7,0.1-1
				c0.6-0.9,2.2-1.3,4.1-1.1c1.1,0.1,2.2,0.5,3.5,0.9l1-3.1c-1-0.3-1.9-0.6-2.9-0.8l-0.4-0.1v-2h-3.3v1.8l-0.4,0.1
				c-1.9,0.3-3.5,1.2-4.4,2.5s-1,3-0.3,4.4c1,2,3.5,3.1,6.7,3.1c2.3,0,3.4,0.7,3.8,1.4c0.2,0.3,0.2,0.7-0.1,1
				c-0.6,0.8-2.1,1.3-4,1.1c-1.1-0.1-2.2-0.5-3.5-0.9l-1,3.1c0.9,0.3,1.9,0.6,2.8,0.8l0.4,0.1C17.2,27.4,17.2,29.2,17.2,29.2z"/>
		</g>
	</g>
</g>
</svg>
